<?xml version="1.0" encoding="UTF-8"?>
<svg id="Calque_1" width="165px" height="45" data-name="Calque 1" xmlns="http://www.w3.org/2000/svg" version="1.1" viewBox="0 0 165 48">
  <defs>
    <style>
      .cls-1 {
        fill: #02A1B6;
        stroke-width: 0px;
      }
    </style>
  </defs>
  <path class="cls-1" d="M7.72,42.19c-.43-.44-.64-1.27-.64-2.49,0-.82.09-1.88.26-3.17.17-1.29.46-3.06.86-5.33.69-4.17,1.24-7.79,1.64-10.85.24-1.91.36-3.51.36-4.79,0-1.2-.44-1.79-1.32-1.79-.69,0-1.52.35-2.49,1.06-.97.7-2.04,1.83-3.21,3.37-.37.51-.78.76-1.24.76-.37,0-.7-.18-.98-.54-.28-.36-.42-.76-.42-1.22,0-.42.09-.86.26-1.3.17-.44.46-.94.86-1.5,1.28-1.78,2.7-3.16,4.27-4.13,1.57-.97,3.14-1.46,4.71-1.46,1.46,0,2.59.47,3.37,1.4.78.93,1.18,2.29,1.18,4.07,0,.72-.07,1.56-.2,2.53-.13.97-.25,1.76-.36,2.37-.11.61-.19,1.04-.24,1.28,1.52-4.33,3.22-7.36,5.11-9.08s3.96-2.57,6.22-2.57c1.73,0,3.09.61,4.09,1.84,1,1.22,1.5,2.95,1.5,5.19,0,.88-.12,1.97-.36,3.27,1.33-3.67,2.89-6.3,4.67-7.9,1.78-1.6,3.83-2.39,6.14-2.39,1.86,0,3.29.6,4.29,1.8s1.5,2.87,1.5,5.03c0,1.17-.17,2.59-.52,4.27l-2.43,11.41c-.27,1.33-.4,2.47-.4,3.43,0,1.12.26,1.95.78,2.51.52.56,1.24.84,2.17.84.88,0,1.74-.29,2.57-.88s1.83-1.56,2.97-2.91c.32-.37.68-.56,1.08-.56.35,0,.62.16.82.48.2.32.3.76.3,1.32,0,1.04-.25,1.86-.76,2.47-1.38,1.67-2.75,2.9-4.11,3.67-1.36.77-2.78,1.16-4.27,1.16-2.26,0-4.03-.67-5.31-2.01-1.28-1.34-1.91-3.14-1.91-5.41,0-1.57.32-3.84.96-6.82l1.6-7.3c.05-.24.15-.66.28-1.28.13-.61.24-1.19.32-1.74.08-.54.12-1.08.12-1.62,0-.93-.18-1.63-.54-2.09-.36-.46-.87-.7-1.54-.7-1.25,0-2.56.8-3.93,2.41-1.37,1.61-2.67,4.28-3.91,8-1.24,3.72-2.24,8.56-3.01,14.52-.19,1.6-.51,2.67-.98,3.21-.47.55-1.22.82-2.25.82-.9,0-1.56-.21-1.97-.64-.41-.43-.62-1.22-.62-2.39,0-1.09.15-2.52.44-4.29.29-1.77.66-3.85,1.12-6.24,1.22-6.44,1.84-10.59,1.84-12.45,0-1.01-.19-1.76-.58-2.23-.39-.48-.96-.72-1.74-.72-1.3,0-2.65.74-4.03,2.21-1.38,1.48-2.73,4.1-4.05,7.86-1.32,3.76-2.41,8.85-3.29,15.26-.19,1.36-.46,2.3-.82,2.83-.36.53-1.06.8-2.09.8-.98,0-1.69-.22-2.11-.66Z"/>
  <path class="cls-1" d="M52.6,41.06c-.98-1.2-1.48-2.77-1.48-4.71,0-2.13.49-4.14,1.48-6.04.98-1.9,2.29-3.43,3.93-4.59,1.64-1.16,3.37-1.74,5.21-1.74.58,0,.98.11,1.18.34.2.23.37.63.5,1.22.56-.11,1.14-.16,1.76-.16,1.3,0,1.95.47,1.95,1.4,0,.56-.2,1.89-.6,3.99-.61,3.06-.92,5.19-.92,6.38,0,.4.1.72.3.96s.46.36.78.36c.51,0,1.12-.33,1.84-.98.72-.65,1.69-1.71,2.91-3.17.32-.37.68-.56,1.08-.56.35,0,.62.16.82.48.2.32.3.76.3,1.32,0,1.06-.25,1.89-.76,2.47-1.09,1.36-2.25,2.5-3.47,3.43-1.22.93-2.41,1.4-3.55,1.4-.88,0-1.68-.3-2.41-.9-.73-.6-1.28-1.42-1.66-2.45-1.38,2.23-3.13,3.35-5.23,3.35-1.65,0-2.97-.6-3.95-1.79ZM59.66,37.78c.53-.69.92-1.61,1.16-2.75l1.48-7.34c-1.12.03-2.15.45-3.09,1.26-.94.81-1.7,1.88-2.25,3.21-.56,1.33-.84,2.74-.84,4.23,0,.82.17,1.44.5,1.84.33.4.79.6,1.38.6s1.14-.34,1.68-1.04Z"/>
  <path class="cls-1" d="M89,34.23c.2.32.3.76.3,1.32,0,1.06-.25,1.89-.76,2.47-1.14,1.41-2.39,2.57-3.75,3.47-1.36.9-2.91,1.36-4.67,1.36-5.43,0-8.14-3.82-8.14-11.45,0-1.17.04-2.35.12-3.55h-1.56c-.8,0-1.34-.15-1.62-.44-.28-.29-.42-.76-.42-1.4,0-1.49.6-2.23,1.8-2.23h2.27c.45-2.93,1.14-5.6,2.07-8.02.93-2.42,2.05-4.35,3.37-5.78s2.73-2.15,4.25-2.15c1.12,0,2,.49,2.63,1.48.64.98.96,2.22.96,3.71,0,4.12-1.73,7.71-5.19,10.77h4.47c.43,0,.73.09.92.28.19.19.28.53.28,1.04,0,1.84-1.5,2.75-4.51,2.75h-4.87c-.05,1.33-.08,2.37-.08,3.11,0,2.77.33,4.71.98,5.82.65,1.12,1.68,1.68,3.09,1.68,1.14,0,2.15-.35,3.03-1.04s1.92-1.73,3.11-3.11c.32-.37.68-.56,1.08-.56.35,0,.62.16.82.48ZM79.87,13.15c-.49,1-.96,2.38-1.4,4.15-.44,1.77-.8,3.73-1.1,5.88,1.57-1.36,2.75-2.88,3.53-4.57.78-1.69,1.18-3.22,1.18-4.61,0-1.57-.29-2.35-.88-2.35-.4,0-.84.5-1.34,1.5Z"/>
  <path class="cls-1" d="M109.03,34.23c.2.32.3.76.3,1.32,0,1.06-.25,1.89-.76,2.47-1.22,1.41-2.48,2.57-3.77,3.47-1.29.9-2.76,1.36-4.41,1.36-1.36,0-2.38-.39-3.07-1.18s-1.04-1.92-1.04-3.41c0-.74.19-2.08.56-3.99.34-1.67.52-2.83.52-3.47,0-.43-.15-.64-.44-.64-.35,0-.84.45-1.48,1.34-.64.89-1.28,2.07-1.91,3.53-.64,1.46-1.16,3.01-1.56,4.63-.51,2.13-1.76,3.19-3.75,3.19-.8,0-1.32-.29-1.58-.86-.25-.57-.38-1.6-.38-3.09,0-.85.01-1.53.04-2.04l.04-3.19c0-4.1.42-8.36,1.26-12.81.84-4.44,2.07-8.17,3.71-11.19,1.64-3.02,3.6-4.53,5.88-4.53,1.22,0,2.21.53,2.97,1.58.76,1.05,1.14,2.41,1.14,4.09,0,2.69-.78,5.47-2.35,8.36-1.57,2.89-4.12,6.26-7.66,10.11-.08,1.38-.12,2.81-.12,4.27.88-2.26,1.86-4.1,2.93-5.53,1.08-1.42,2.14-2.44,3.19-3.05,1.05-.61,2.01-.92,2.89-.92,1.73,0,2.59.86,2.59,2.59,0,1.04-.29,2.91-.88,5.62-.51,2.31-.76,3.84-.76,4.59,0,1.06.38,1.6,1.16,1.6.53,0,1.16-.33,1.89-.98s1.71-1.71,2.93-3.17c.32-.37.68-.56,1.08-.56.35,0,.62.16.82.48ZM94.77,11.15c-.59,1.37-1.15,3.22-1.7,5.55-.55,2.33-.99,4.86-1.34,7.6,1.65-1.94,3.01-4.06,4.09-6.34,1.08-2.29,1.61-4.36,1.61-6.22,0-.85-.09-1.5-.28-1.95-.19-.45-.45-.68-.8-.68-.48,0-1.01.68-1.6,2.05Z"/>
  <path class="cls-1" d="M107.23,41.01c-.78-1.22-1.18-2.84-1.18-4.87,0-1.2.15-2.73.46-4.61.31-1.88.7-3.62,1.18-5.25.24-.85.56-1.44.96-1.76.4-.32,1.04-.48,1.92-.48,1.36,0,2.04.45,2.04,1.36,0,.66-.25,2.21-.76,4.63-.64,2.93-.96,4.91-.96,5.94,0,.8.11,1.41.32,1.84s.57.64,1.08.64c.48,0,1.08-.33,1.79-1,.72-.66,1.68-1.72,2.87-3.15.32-.37.68-.56,1.08-.56.34,0,.62.16.82.48.2.32.3.76.3,1.32,0,1.06-.25,1.89-.76,2.47-2.63,3.22-5.09,4.83-7.38,4.83-1.73,0-2.99-.61-3.77-1.84ZM108.81,20.65c-.56-.52-.84-1.24-.84-2.17s.37-1.71,1.1-2.33c.73-.62,1.64-.94,2.73-.94.98,0,1.78.24,2.39.72.61.48.92,1.16.92,2.03,0,1.06-.35,1.91-1.04,2.53-.69.63-1.61.94-2.75.94s-1.95-.26-2.51-.78Z"/>
  <path class="cls-1" d="M131.85,34.23c.2.32.3.76.3,1.32,0,1.06-.25,1.89-.76,2.47-1.14,1.41-2.39,2.57-3.73,3.47-1.34.9-2.87,1.36-4.57,1.36-2.34,0-4.08-1.06-5.21-3.19-1.13-2.13-1.7-4.88-1.7-8.26s.42-6.94,1.26-11.09,2.07-7.71,3.71-10.69c1.64-2.98,3.58-4.47,5.84-4.47,1.28,0,2.28.59,3.01,1.78.73,1.18,1.1,2.88,1.1,5.09,0,3.17-.88,6.84-2.63,11.01-1.76,4.18-4.14,8.31-7.14,12.41.19,1.09.49,1.87.92,2.33.43.47.98.7,1.68.7,1.09,0,2.05-.31,2.87-.94s1.88-1.7,3.15-3.21c.32-.37.68-.56,1.08-.56.34,0,.62.16.82.48ZM124.05,12.41c-.77,2.21-1.45,4.95-2.04,8.22s-.9,6.41-.96,9.41c1.89-3.11,3.39-6.23,4.51-9.35,1.12-3.12,1.67-5.98,1.67-8.56,0-2.02-.37-3.03-1.12-3.03-.61,0-1.3,1.1-2.07,3.31Z"/>
  <path class="cls-1" d="M152,34.23c.2.32.3.76.3,1.32,0,1.06-.25,1.89-.76,2.47-1.09,1.33-2.29,2.47-3.59,3.41-1.3.94-2.59,1.42-3.87,1.42-2.02,0-3.56-1.18-4.63-3.55-1.12,1.41-2.09,2.35-2.93,2.83-.84.48-1.82.72-2.93.72-1.62,0-2.96-.6-4.01-1.82-1.05-1.21-1.57-2.79-1.57-4.73,0-2.13.45-4.1,1.36-5.92.9-1.82,2.15-3.31,3.73-4.47,1.58-1.16,3.36-1.84,5.33-2.05.51-5.16,1.47-9.57,2.89-13.23,1.42-3.66,3.29-5.49,5.61-5.49,1.14,0,2.09.52,2.85,1.56.76,1.04,1.14,2.61,1.14,4.71,0,2.98-.73,6.46-2.19,10.45-1.46,3.99-3.42,8.09-5.86,12.29.11,1.54.34,2.65.7,3.31.36.67.82,1,1.38,1,.72,0,1.45-.32,2.2-.96.74-.64,1.74-1.7,2.99-3.19.32-.37.68-.56,1.08-.56.35,0,.62.16.82.48ZM136.5,38.2c.5-.41,1.14-1.18,1.91-2.29-.27-1.44-.4-3.04-.4-4.83,0-.64.03-1.68.08-3.11-1.46.45-2.68,1.43-3.65,2.93-.97,1.5-1.46,3.17-1.46,5.01,0,1.94.66,2.91,2,2.91.5,0,1.01-.21,1.52-.62ZM144.95,11.75c-.51,1.8-.94,4.14-1.3,7.04-.36,2.9-.62,5.93-.78,9.1,2.98-6.49,4.47-11.7,4.47-15.64,0-1.01-.09-1.8-.26-2.35-.17-.56-.38-.84-.62-.84-.51,0-1.01.9-1.52,2.69Z"/>
  <path class="cls-1" d="M164.16,35.43c.2.32.3.76.3,1.32,0,.96-.23,1.78-.68,2.47-.74,1.14-1.72,2.04-2.93,2.67-1.21.64-2.65.96-4.33.96-2.55,0-4.53-.76-5.94-2.29-1.41-1.53-2.11-3.6-2.11-6.2,0-1.83.39-3.54,1.16-5.13.77-1.58,1.84-2.84,3.21-3.77,1.37-.93,2.92-1.4,4.65-1.4,1.54,0,2.78.46,3.71,1.38.93.92,1.4,2.16,1.4,3.73,0,1.84-.66,3.41-1.97,4.73-1.32,1.32-3.56,2.36-6.72,3.13.64,1.22,1.72,1.84,3.23,1.84,1.09,0,1.99-.25,2.69-.76.7-.5,1.52-1.36,2.45-2.55.32-.4.68-.6,1.08-.6.34,0,.62.16.82.48ZM154.31,29.68c-.68,1.14-1.02,2.53-1.02,4.15v.08c1.57-.37,2.81-.93,3.71-1.68.9-.74,1.36-1.61,1.36-2.59,0-.5-.14-.91-.42-1.22-.28-.31-.66-.46-1.14-.46-.98,0-1.81.57-2.49,1.71Z"/>
</svg>