<?xml version="1.0" encoding="UTF-8"?>
<svg id="Calque_1" data-name="Calque 1" xmlns="http://www.w3.org/2000/svg" version="1.1" viewBox="0 0 32 32">
  <defs>
    <style>
      .cls-1 {
        fill: #1d2024;
        stroke-width: 0px;
      }
    </style>
  </defs>
  <path class="cls-1" d="M4.69,25.26c-.24-.25-.36-.72-.36-1.41,0-.47.05-1.06.15-1.79.1-.73.26-1.74.49-3.01.39-2.36.7-4.41.93-6.14.14-1.08.2-1.99.2-2.71,0-.68-.25-1.02-.75-1.02-.39,0-.86.2-1.41.6-.55.4-1.16,1.04-1.82,1.91-.21.29-.44.43-.7.43-.21,0-.4-.1-.55-.31-.16-.2-.24-.43-.24-.69,0-.24.05-.49.15-.73.1-.25.26-.53.49-.85.72-1.01,1.53-1.79,2.42-2.34s1.78-.82,2.66-.82c.83,0,1.46.26,1.91.79.44.53.67,1.29.67,2.3,0,.41-.04.88-.11,1.43s-.14,1-.2,1.34c-.06.35-.11.59-.14.72.86-2.45,1.82-4.17,2.89-5.14,1.07-.97,2.24-1.46,3.52-1.46.98,0,1.75.35,2.32,1.04.56.69.85,1.67.85,2.94,0,.5-.07,1.11-.2,1.85.75-2.08,1.63-3.57,2.64-4.47,1.01-.9,2.17-1.35,3.48-1.35,1.05,0,1.86.34,2.43,1.02.57.68.85,1.63.85,2.85,0,.66-.1,1.47-.29,2.42l-1.38,6.46c-.15.75-.22,1.4-.22,1.94,0,.63.15,1.11.44,1.42.29.32.71.47,1.23.47.5,0,.98-.17,1.46-.5.47-.33,1.03-.88,1.68-1.65.18-.21.39-.32.61-.32.19,0,.35.09.46.27.11.18.17.43.17.75,0,.59-.14,1.05-.43,1.4-.78.95-1.55,1.64-2.32,2.08-.77.44-1.57.66-2.42.66-1.28,0-2.28-.38-3-1.14s-1.08-1.78-1.08-3.06c0-.89.18-2.18.54-3.86l.9-4.13c.03-.14.08-.38.16-.72.08-.35.14-.67.18-.98.04-.31.07-.61.07-.91,0-.53-.1-.92-.31-1.19s-.49-.4-.87-.4c-.71,0-1.45.45-2.23,1.37-.78.91-1.51,2.42-2.21,4.53-.7,2.11-1.27,4.85-1.71,8.22-.1.9-.29,1.51-.55,1.82-.26.31-.69.46-1.28.46-.51,0-.89-.12-1.12-.36s-.35-.69-.35-1.36c0-.62.08-1.43.25-2.43.17-1,.37-2.18.63-3.53.69-3.64,1.04-5.99,1.04-7.04,0-.57-.11-.99-.33-1.26-.22-.27-.54-.41-.98-.41-.74,0-1.5.42-2.28,1.25-.78.84-1.55,2.32-2.29,4.45-.75,2.13-1.37,5.01-1.86,8.64-.11.77-.26,1.3-.46,1.6-.2.3-.6.45-1.19.45s-.96-.12-1.2-.37Z"/>
</svg>